<svg width="64" height="64" viewBox="0 0 64 64" xmlns="http://www.w3.org/2000/svg">
  <rect width="64" height="64" rx="14" fill="#2e90d6"/>
  <g transform="translate(6,4) scale(0.26)">
    <path d="M113,78 C122,58 136,48 146,24" stroke="#ffffff" stroke-width="7" stroke-linecap="round" fill="none"/>
    <path d="M125,52 C134,46 142,42 150,34" stroke="#ffffff" stroke-width="6" stroke-linecap="round" fill="none"/>
    <path d="M133,38 C141,33 148,30 156,20" stroke="#ffffff" stroke-width="5" stroke-linecap="round" fill="none"/>
    <path d="M87,78 C78,58 64,48 54,24" stroke="#ffffff" stroke-width="7" stroke-linecap="round" fill="none"/>
    <path d="M75,52 C66,46 58,42 50,34" stroke="#ffffff" stroke-width="6" stroke-linecap="round" fill="none"/>
    <path d="M67,38 C59,33 52,30 44,20" stroke="#ffffff" stroke-width="5" stroke-linecap="round" fill="none"/>
    <path d="M136,88 C150,72 168,70 176,80 C166,93 150,97 137,92 Z" fill="#ffffff"/>
    <path d="M64,88 C50,72 32,70 24,80 C34,93 50,97 63,92 Z" fill="#ffffff"/>
    <path d="M100,72 C130,72 149,97 147,126 C145,152 129,177 100,193 C71,177 55,152 53,126 C51,97 70,72 100,72 Z" fill="#ffffff"/>
  </g>
</svg>
